<?xml version="1.0" encoding="utf-8"?>
<!-- Generator: Adobe Illustrator 25.0.1, SVG Export Plug-In . SVG Version: 6.00 Build 0)  -->
<svg version="1.1" id="Calque_1" xmlns="http://www.w3.org/2000/svg" xmlns:xlink="http://www.w3.org/1999/xlink" x="0px" y="0px"
	 viewBox="0 0 65.9 57.8" style="enable-background:new 0 0 65.9 57.8;" xml:space="preserve">
<style type="text/css">
	.st0{fill:#FFFFFF;}
	.st1{font-family:'Nunito-Bold';}
	.st2{font-size:24px;}
	.st3{fill:none;stroke:#FFFFFF;}
	.st4{font-family:'Nunito-SemiBold';}
</style>
<path class="st0" d="M36.1,57.8c-0.4,0-0.7-0.1-1-0.4c-0.3-0.3-0.4-0.6-0.4-1V43.8c0-5.5,5.8-9,6.4-9.4c1.9-1.4,3.7-2.9,5.3-4.5
	l4.8-5.3c0.7-0.8,1.6-1.4,2.6-1.9l1.8-17.1c0-3.1,2.2-5.6,5-5.6l0,0c3,0.2,5.3,2.6,5.3,5.6v27.1c0,0.3-0.1,0.6-0.3,0.9L53,49.8l0,0
	c-0.1,0.2-0.9,1.9-0.7,6.3c0,0.4-0.1,0.8-0.4,1.1c-0.3,0.3-0.6,0.4-1,0.4C50.9,57.6,36.1,57.8,36.1,57.8z M55.3,25.1
	c-0.8,0.3-1.6,0.8-2.1,1.5l-4.9,5.3c-1.8,1.8-3.7,3.5-5.8,5L42.4,37c-0.1,0-5,3-5,6.9V55l11.9-0.1c-0.1-4.6,1-6.3,1.3-6.8l12.1-15.8
	V5.6c0.1-1.4-0.9-2.6-2.3-2.7l0,0c-1.2,0-2.1,1.2-2.1,2.8v0.1l-1.7,16.1c1.1,0,2.1,0.4,2.9,1.1c0.9,0.8,1.4,2,1.4,3.2
	c0,2-0.8,4-2.2,5.4L52,39c-0.5,0.6-1.3,0.7-1.9,0.2L50,39.1c-0.6-0.5-0.6-1.4-0.1-2l6.9-7.4c0.9-0.9,1.4-2.1,1.4-3.3
	c0-0.4-0.1-0.9-0.4-1.2c-0.6-0.4-1.3-0.5-2-0.2C55.6,25,55.5,25,55.3,25.1z"/>
<path class="st0" d="M29.6,57.8L29.6,57.8l-14.9-0.1c-0.8,0.1-1.4-0.5-1.5-1.2c0-0.1,0-0.2,0-0.3c0.3-4.4-0.5-6.1-0.7-6.3l0,0
	L0.2,33.6C0.1,33.3,0,33,0,32.7V5.6c-0.1-3,2.3-5.5,5.3-5.6l0,0c2.8,0,5,2.5,5,5.7L11,22.3c1.4,0.4,2.6,1.2,3.6,2.3l4.9,5.3
	c1.6,1.6,3.4,3.1,5.3,4.5c0.6,0.4,6.4,3.9,6.4,9.4v12.6c0,0.4-0.1,0.8-0.4,1C30.5,57.7,30,57.8,29.6,57.8z M16.3,54.8l11.9,0.1v-11
	c0-3.9-5-6.9-5-6.9c-0.1,0-0.1,0-0.1-0.1c-2.1-1.5-4-3.2-5.8-5l-4.9-5.3c-1.5-1.7-3.6-2-4.4-1.3c-0.4,0.5-0.6,1.1-0.4,1.7
	c0.2,1,0.7,2,1.4,2.8l6.8,7.4c0.6,0.5,0.6,1.4,0.1,2s-1.4,0.6-2,0.1c-0.1,0-0.1-0.1-0.1-0.2l-6.9-7.4C5.7,30.5,5,29,4.8,27.3
	c-0.3-1.5,0.3-3.1,1.4-4.2c0.6-0.5,1.2-0.9,2-1L7.4,5.8V5.7c0-1.5-0.9-2.8-2.1-2.8l0,0C3.9,3.1,2.9,4.3,3,5.7v26.6l12.1,15.8
	C15.3,48.5,16.4,50.2,16.3,54.8z"/>
<text transform="matrix(1 0 0 1 14.3529 25.3343)" class="st0 st1 st2">&lt;/&gt;</text>
<text transform="matrix(1 0 0 1 14.3529 25.3343)" class="st3 st4 st2">&lt;/&gt;</text>
</svg>
