<?xml version="1.0" encoding="utf-8"?>
<!-- Generator: Adobe Illustrator 25.0.1, SVG Export Plug-In . SVG Version: 6.00 Build 0)  -->
<svg version="1.1"
	 id="svg8" xmlns:cc="http://creativecommons.org/ns#" xmlns:dc="http://purl.org/dc/elements/1.1/" xmlns:inkscape="http://www.inkscape.org/namespaces/inkscape" xmlns:rdf="http://www.w3.org/1999/02/22-rdf-syntax-ns#" xmlns:sodipodi="http://sodipodi.sourceforge.net/DTD/sodipodi-0.dtd" xmlns:svg="http://www.w3.org/2000/svg"
	 xmlns="http://www.w3.org/2000/svg" xmlns:xlink="http://www.w3.org/1999/xlink" x="0px" y="0px" viewBox="0 0 32 32"
	 style="enable-background:new 0 0 32 32;" xml:space="preserve">
<style type="text/css">
	.st0{fill:#FFFFFF;}
</style>
<sodipodi:namedview  bordercolor="#666666" borderopacity="1.0" guidecolor="#af0000" guidehicolor="#ff4b4b" guidehiopacity="0.49803922" guideopacity="0.49803922" id="base" inkscape:current-layer="layer1" inkscape:cx="3.1382441" inkscape:cy="14.930612" inkscape:document-units="px" inkscape:pageopacity="0.0" inkscape:pageshadow="2" inkscape:snap-global="true" inkscape:window-height="658" inkscape:window-maximized="1" inkscape:window-width="1280" inkscape:window-x="-8" inkscape:window-y="-8" inkscape:zoom="11.313708" pagecolor="#ffffff" showgrid="false" showguides="true" units="px">
	
		<inkscape:grid  dotted="false" empspacing="1" enabled="true" id="grid815" originx="0" originy="0" snapvisiblegridlinesonly="true" spacingx="0" spacingy="0" type="xygrid" visible="true">
		</inkscape:grid>
</sodipodi:namedview>
<g id="layer1" transform="translate(0,-288.53332)" inkscape:groupmode="layer" inkscape:label="Guides">
	<path id="circle1066-3" inkscape:connector-curvature="0" class="st0" d="M16,290.5c-5.5,0-10,4.6-10,10.2c0,3.6,2,6.8,5,8.7v2.6
		h1.5v0.3c-0.4,0.1-0.7,0.5-0.6,0.9c0.1,0.3,0.3,0.5,0.6,0.6v0.4c-0.4,0.1-0.7,0.5-0.6,0.9c0.1,0.3,0.3,0.5,0.6,0.6v1.8h0.7v0.1v0.3
		l0.1,0.2l0.2,0.2l0.1,0.1h0.1c0.1,0,0.2,0,0.3,0.1c0.1,0,0.3,0,0.5,0.1c0.4,0,0.9,0,1.5,0c0.6,0,1.1,0,1.5,0c0.2,0,0.4,0,0.5-0.1
		c0.1,0,0.1,0,0.2-0.1h0.1l0.1-0.1l0.2-0.2l0.1-0.2v-0.3c0,0,0,0,0-0.1h0.7v-1.8c0.4-0.1,0.7-0.5,0.7-0.9c0-0.3-0.3-0.6-0.7-0.7
		v-0.4c0.4-0.1,0.7-0.5,0.6-0.9c-0.1-0.3-0.3-0.6-0.6-0.7V312H21v-2.6c3-1.8,5-5,5-8.7C26,295.1,21.5,290.5,16,290.5L16,290.5z
		 M16,292.1c4.7,0,8.5,3.9,8.5,8.6c0,3.2-1.8,6.2-4.6,7.7l-0.4,0.2v1.8h-6.9v-1.8l-0.4-0.2c-2.8-1.5-4.6-4.4-4.6-7.7
		C7.5,296,11.3,292.1,16,292.1z M16,298.5c-0.4,0-0.8,0.4-0.8,0.8v6.9c0,0.4,0.3,0.8,0.7,0.8s0.8-0.3,0.8-0.7v-0.1v-6.9
		C16.8,298.8,16.4,298.5,16,298.5L16,298.5L16,298.5z M11,300.5C10.9,300.5,10.9,300.5,11,300.5c-0.5,0-0.8,0.4-0.8,0.9
		c0,0.1,0,0.2,0.1,0.3l3.1,6.1c0.2,0.4,0.6,0.6,1,0.4s0.6-0.6,0.4-1c0,0,0,0,0-0.1l-3.1-6.1C11.5,300.7,11.3,300.5,11,300.5z
		 M20.8,300.5c-0.3,0-0.5,0.2-0.7,0.4L17,307c-0.2,0.4-0.1,0.9,0.3,1.1s0.8,0.1,1.1-0.3l0,0l3.1-6.1c0.2-0.4,0.1-0.9-0.3-1.1
		C21.1,300.6,20.9,300.5,20.8,300.5z M14,312h4v0.3h-4V312z M14,313.9h4v0.4h-4V313.9z M14,315.8h4v0.2h-4V315.8z"/>
</g>
</svg>
